<svg xmlns="http://www.w3.org/2000/svg" viewBox="0 0 528.54 262.26"><defs><style>.a{fill:#652d90;}</style></defs><title>BasicLogoRGB copy</title><path class="a" d="M62.89,249.2v14.2H59.31V249.2c0-3.14-.92-6.52-5.81-6.52s-5.8,3.34-5.8,6.52v14.16H44.12V249.2c0-6.24,3.7-9.63,9.38-9.63a8.83,8.83,0,0,1,7.56,4.58,8.83,8.83,0,0,1,7.6-4.53c5.68,0,9.38,3.38,9.38,9.58v14.2H74.46V249.2c0-3.14-.63-6.52-5.8-6.52C63.81,242.68,62.89,246.06,62.89,249.2Z" transform="translate(-14.17 -13.46)"/><path class="a" d="M98,263.36v-3.74C97.29,262,94.11,264,90.29,264c-4.89,0-8.2-2.14-8.2-7,0-9.3,15.87-6.48,15.87-11.13,0-2.75-3.06-3.22-4.61-3.22a7.94,7.94,0,0,0-6,2.59l-2.15-1.92a10.14,10.14,0,0,1,8.19-3.74c5.57,0,8.11,2.79,8.11,6.53v17.26Zm0-11.86v-1C95.22,252.9,85.8,251.83,85.8,257c0,2.67,1.63,4,4.89,4C96.77,260.93,98,257.11,98,251.5Z" transform="translate(-14.17 -13.46)"/><path class="a" d="M118.12,240.18,117,243a5.7,5.7,0,0,0-1.68-.28c-4.61,0-5.69,3.3-5.69,7.4v13.24h-3.54v-14c0-5.8,2.47-9.83,8.8-9.83A10.11,10.11,0,0,1,118.12,240.18Z" transform="translate(-14.17 -13.46)"/><path class="a" d="M124.77,263.4h-3.55V230.71h3.59Zm15.35,0H135.7l-11-13.56,9.78-10h4.65l-10.06,10Z" transform="translate(-14.17 -13.46)"/><path class="a" d="M163.34,252.18H145.56c.16,5.45,2.75,8.56,7.24,8.56,3.18,0,5.45-1.28,6.68-3.54l2.87,1.19c-1.56,3.3-4.7,5.41-9.55,5.41-7.84,0-11-6-11-12s3.14-12.17,10.83-12.17C160,239.66,163.14,245.5,163.34,252.18Zm-17.62-3h13.72c-.59-3.54-2.54-6.44-6.83-6.44S146.32,245.7,145.72,249.2Z" transform="translate(-14.17 -13.46)"/><path class="a" d="M172.72,233.34v6.44H177V243h-4.3V255.6c0,3.58,1.08,4.61,3.43,4.61h.63v3.35h-.55c-5.37,0-7-2-7-8V243H166.6v-3.18h2.59v-6.44Z" transform="translate(-14.17 -13.46)"/><path class="a" d="M183.26,236.12a2.06,2.06,0,0,1-2.11-2.11,2.09,2.09,0,1,1,4.18,0A2,2,0,0,1,183.26,236.12Zm1.79,21.08c0,2.77,1,3.18,2.59,3.18v3.34c-3.58,0-6.17-.6-6.17-6.77V239.78h3.58Z" transform="translate(-14.17 -13.46)"/><path class="a" d="M195,249.2v14.16h-3.57V249.2c0-6.24,3.65-9.63,9.38-9.63s9.38,3.39,9.38,9.63v14.16h-3.57V249.2c0-3.66-1.36-6.52-5.81-6.52S195,245.54,195,249.2Z" transform="translate(-14.17 -13.46)"/><path class="a" d="M230.5,240.77l2.35-2.35,2.27,2.11-2,2a10.26,10.26,0,0,1,2.74,7.28c0,5-2.78,10.26-10.73,10.26-2.19,0-5.49.16-5.49,2.06,0,3.43,15.95-1.19,15.95,7.13,0,5.24-5.41,6.44-10.38,6.44a21.84,21.84,0,0,1-9.62-2.11l1.31-2.82a21.74,21.74,0,0,0,8.31,1.66c2.86,0,6.67-.27,6.67-3.06,0-4.85-16,.32-16-7.12,0-1.75,1.75-3.25,3.18-3.61-3.33-1.8-4.73-5.26-4.73-8.71,0-5.13,3.1-10.3,10.78-10.3A12.59,12.59,0,0,1,230.5,240.77Zm-12.44,9.11c0,3.62,1.79,7.16,7,7.16s7-3.5,7-7.12-1.7-7.16-7-7.16S218.06,246.34,218.06,249.88Z" transform="translate(-14.17 -13.46)"/><path class="a" d="M409.5,249.2v14.2h-3.57V249.2c0-3.14-.91-6.52-5.81-6.52s-5.81,3.34-5.81,6.52v14.16h-3.57V249.2c0-6.24,3.7-9.63,9.38-9.63a8.8,8.8,0,0,1,7.56,4.58,8.83,8.83,0,0,1,7.6-4.53c5.68,0,9.38,3.38,9.38,9.58v14.2h-3.58V249.2c0-3.14-.64-6.52-5.8-6.52C410.42,242.68,409.5,246.06,409.5,249.2Z" transform="translate(-14.17 -13.46)"/><path class="a" d="M450.23,252.18H432.45c.16,5.45,2.74,8.56,7.24,8.56,3.19,0,5.45-1.28,6.68-3.54l2.86,1.19c-1.54,3.3-4.68,5.41-9.54,5.41-7.84,0-11-6-11-12s3.14-12.17,10.81-12.17C446.92,239.66,450,245.5,450.23,252.18Zm-17.62-3h13.72c-.6-3.54-2.54-6.44-6.84-6.44S433.21,245.7,432.61,249.2Z" transform="translate(-14.17 -13.46)"/><path class="a" d="M471,244.43V230.71h3.58V252.3c0,5.81-2.81,11.5-10.46,11.5s-10.66-6-10.66-12.09c0-6.52,2.95-12.05,10.27-12.05A7.79,7.79,0,0,1,471,244.43Zm-13.75,7.36c0,4.53,1.59,9,6.87,9s6.88-4.42,6.88-9-1.54-9-6.88-9S457.27,247.25,457.27,251.79Z" transform="translate(-14.17 -13.46)"/><path class="a" d="M481.57,236.12a2.06,2.06,0,0,1-2.11-2.11,2.09,2.09,0,1,1,4.18,0A2,2,0,0,1,481.57,236.12Zm1.78,21.08c0,2.77,1,3.18,2.59,3.18v3.34c-3.58,0-6.16-.6-6.16-6.77V239.78h3.57Z" transform="translate(-14.17 -13.46)"/><path class="a" d="M504.87,263.36v-3.74C504.19,262,501,264,497.19,264c-4.89,0-8.19-2.14-8.19-7,0-9.3,15.87-6.48,15.87-11.13,0-2.75-3.06-3.22-4.61-3.22a8,8,0,0,0-6,2.59l-2.15-1.92a10.15,10.15,0,0,1,8.2-3.74c5.56,0,8.11,2.79,8.11,6.53v17.26Zm0-11.86v-1c-2.74,2.42-12.17,1.35-12.17,6.47,0,2.67,1.63,4,4.89,4C503.68,260.93,504.87,257.11,504.87,251.5Z" transform="translate(-14.17 -13.46)"/><path class="a" d="M267.5,244.43V230.71h3.58V252.3c0,5.81-2.82,11.5-10.46,11.5s-10.66-6-10.66-12.09c0-6.52,2.95-12.05,10.26-12.05A7.82,7.82,0,0,1,267.5,244.43Zm-13.76,7.36c0,4.53,1.59,9,6.88,9s6.88-4.42,6.88-9-1.55-9-6.88-9S253.74,247.25,253.74,251.79Z" transform="translate(-14.17 -13.46)"/><path class="a" d="M296.58,252.18H278.8c.15,5.45,2.74,8.56,7.23,8.56,3.18,0,5.45-1.28,6.68-3.54l2.87,1.19c-1.55,3.3-4.69,5.41-9.55,5.41-7.83,0-11-6-11-12s3.14-12.17,10.81-12.17C293.27,239.66,296.38,245.5,296.58,252.18Zm-17.63-3h13.72c-.6-3.54-2.54-6.44-6.84-6.44S279.55,245.7,279,249.2Z" transform="translate(-14.17 -13.46)"/><path class="a" d="M307.75,263.91a9.41,9.41,0,0,1-7.92-4.21l2.47-1.83a7.28,7.28,0,0,0,5.45,2.95c2.9,0,4.73-1.16,4.73-3.71,0-4.09-11.5-4.81-11.5-11.45,0-3.85,3-6.09,7.48-6.09a7.74,7.74,0,0,1,7,3.54L313.15,245a5.62,5.62,0,0,0-4.69-2.27c-2.27,0-3.94,1.23-3.94,2.94,0,4.06,11.54,4.89,11.54,11.45C316.06,261.41,312.68,263.91,307.75,263.91Z" transform="translate(-14.17 -13.46)"/><path class="a" d="M322.38,236.12a2.06,2.06,0,0,1-2.11-2.11,2.09,2.09,0,1,1,4.18,0A2,2,0,0,1,322.38,236.12Zm1.79,21.08c0,2.77,1,3.18,2.58,3.18v3.34c-3.57,0-6.15-.6-6.15-6.77V239.78h3.57Z" transform="translate(-14.17 -13.46)"/><path class="a" d="M346,240.77l2.35-2.35,2.27,2.11-2,2a10.31,10.31,0,0,1,2.74,7.28c0,5-2.79,10.26-10.74,10.26-2.19,0-5.49.16-5.49,2.06,0,3.43,16-1.19,16,7.13,0,5.24-5.41,6.44-10.38,6.44a22,22,0,0,1-9.64-2.11l1.33-2.82a21.74,21.74,0,0,0,8.31,1.66c2.86,0,6.67-.27,6.67-3.06,0-4.85-16,.32-16-7.12,0-1.75,1.74-3.25,3.18-3.61-3.34-1.8-4.74-5.26-4.74-8.71,0-5.13,3.11-10.3,10.79-10.3A12.65,12.65,0,0,1,346,240.77Zm-12.45,9.11c0,3.62,1.79,7.16,7.05,7.16s7-3.5,7-7.12-1.7-7.16-7-7.16S333.55,246.34,333.55,249.88Z" transform="translate(-14.17 -13.46)"/><path class="a" d="M359,249.2v14.16h-3.57V249.2c0-6.24,3.66-9.63,9.38-9.63s9.39,3.39,9.39,9.63v14.16h-3.58V249.2c0-3.66-1.35-6.52-5.81-6.52S359,245.54,359,249.2Z" transform="translate(-14.17 -13.46)"/><path class="a" d="M542.7,133.13V40.51c0-14.94-11.57-27-25.85-27H40c-14.27,0-25.85,12.11-25.85,27.05V172.39c0,14.94,11.58,27.05,25.85,27.05H467.07c54.86,0,75.55,39.36,75.55,39.36l0-65.9c0-.17,0-.33,0-.51V152.25l0-19.12ZM67.05,173.79a27.84,27.84,0,0,1-23.31-12.42l-.67-1,1-.73L51,154.51l1-.74.76,1c4.56,5.74,10.38,7.79,14.32,7.79,8,0,12-3.07,12-9.12,0-4.28-5.83-7.28-12.57-10.76-9.25-4.78-19.74-10.19-19.74-21.42s8.75-18.37,22.3-18.37c9.23,0,15.62,3.23,20.71,10.48l.69,1-.93.75L83,120.34l-1,.8-.81-1a14.56,14.56,0,0,0-12.17-5.91c-5.68,0-9.8,2.94-9.8,7,0,4.24,6.13,7.43,12.63,10.8,9.27,4.83,19.79,10.29,19.79,21.38C91.69,165.79,82,173.79,67.05,173.79Zm63.35-.32c-23.53,0-31.91-18-31.91-34.91,0-16.37,8.36-35.48,31.91-35.48s31.78,18.15,31.78,35.14C162.18,154.48,153.86,173.47,130.4,173.47Zm96.15-28.77c0,17.66-10.34,28.21-27.66,28.21s-27.66-10.55-27.66-28.21V103.53h12.63V144.7c0,11.46,4.92,17,15,17s15-5.42,15-17V103.53h12.63ZM267,114.91H254.92v34.25c0,9.82,2.93,11.69,8.33,11.69h3.07v11.94h-2.86c-15.55,0-21.06-6.18-21.06-23.63V114.91h-7.25V103.42h7.25V85.31h12.52v18.11H267Zm63.56,57.33H317.93V137.77c0-12.45-1.12-23.64-14.58-23.64-12.89,0-15.48,9.05-15.48,23.64v34.47H275.26V77.94H288v33.4a20.45,20.45,0,0,1,16.59-8.48c22.89,0,26,17.65,26,34.91Zm41.07-9.94c8.25,0,14.36-3.21,17.65-9.28l.55-1,1.07.45,8.05,3.36,1.22.51-.56,1.21c-3.42,7.27-11.05,15.94-28,15.94-23.79,0-32.23-18.81-32.23-34.91,0-16.37,8.29-35.48,31.66-35.48,19,0,30.77,13.62,31.45,36.43l0,1.32H352.62C353.43,154.69,360.14,162.3,371.63,162.3Zm76-56-3.22,7.93-.46,1.12-1.14-.39a14.53,14.53,0,0,0-4.3-.72c-10.29,0-14.68,5.84-14.68,19.51v38.49H411.35V131.73c0-18.89,9-28.87,26-28.87a30.23,30.23,0,0,1,9.58,1.74l1.28.45Zm61.56,65.94H496.6V131.17c0-11.46-4.92-17-15-17s-15,5.58-15,17v41.07H453.93V131.17c0-17.72,10.34-28.31,27.64-28.31s27.66,10.59,27.66,28.31ZM130.4,114.36c-16.9,0-18.73,16.76-18.73,24s1.83,24,18.73,24S149,145.62,149,138.45,147.19,114.36,130.4,114.36Zm240.66,0c-11.74,0-16.17,8.12-17.76,15.53h35.44C387.15,122.48,382.76,114.36,371.06,114.36Z" transform="translate(-14.17 -13.46)"/></svg>